<svg width="61" height="52" viewBox="0 0 61 52" fill="none" xmlns="http://www.w3.org/2000/svg">
<path d="M57.9531 17.5156H50.8125V19.8906H57.9531V22.2812H60.3281V10.375H57.9531V17.5156Z" fill="black"/>
<path d="M57.9531 18.5156H50.8125V20.8906H57.9531V23.2812H60.3281V11.375H57.9531V18.5156Z" fill="black"/>
<path d="M48.4219 27.0469H43.6719V29.4219H48.4219V31.7969H43.6719V29.4219H41.2812V38.9531H48.4219V41.3281H41.2812V43.7031H34.1406V46.1016H36.5312V50.8516H41.2812V48.4766H38.9062V46.1016H46.0469V43.7109H48.4219V46.1016H53.1875V43.7109H50.8125V34.1953H53.1875V36.5703H55.5781V31.8047H50.8125V24.6641H57.9531V22.2891H48.4219V27.0469ZM48.4219 36.5625H43.6719V34.1875H48.4219V36.5625Z" fill="black"/>
<path d="M48.4219 28.0469H43.6719V30.4219H48.4219V32.7969H43.6719V30.4219H41.2812V39.9531H48.4219V42.3281H41.2812V44.7031H34.1406V47.1016H36.5312V51.8516H41.2812V49.4766H38.9062V47.1016H46.0469V44.7109H48.4219V47.1016H53.1875V44.7109H50.8125V35.1953H53.1875V37.5703H55.5781V32.8047H50.8125V25.6641H57.9531V23.2891H48.4219V28.0469ZM48.4219 37.5625H43.6719V35.1875H48.4219V37.5625Z" fill="black"/>
<path d="M41.2812 12.75H43.6719V17.5156H41.2812V12.75Z" fill="black"/>
<path d="M41.2812 13.75H43.6719V18.5156H41.2812V13.75Z" fill="black"/>
<path d="M38.9062 8H57.9531V10.375H38.9062V8Z" fill="black"/>
<path d="M38.9062 9H57.9531V11.375H38.9062V9Z" fill="black"/>
<path d="M38.9062 38.9531H41.2812V41.3281H38.9062V38.9531Z" fill="black"/>
<path d="M38.9062 39.9531H41.2812V42.3281H38.9062V39.9531Z" fill="black"/>
<path d="M36.5312 10.375H38.9062V27.0469H36.5312V10.375Z" fill="black"/>
<path d="M36.5312 11.375H38.9062V28.0469H36.5312V11.375Z" fill="black"/>
<path d="M34.1406 27.0469H36.5312V34.1875H34.1406V27.0469Z" fill="black"/>
<path d="M34.1406 28.0469H36.5312V35.1875H34.1406V28.0469Z" fill="black"/>
<path d="M31.7656 41.3281H34.1406V43.7031H31.7656V41.3281Z" fill="black"/>
<path d="M31.7656 42.3281H34.1406V44.7031H31.7656V42.3281Z" fill="black"/>
<path d="M31.7656 34.1875H34.1406V36.5625H31.7656V34.1875Z" fill="black"/>
<path d="M31.7656 35.1875H34.1406V37.5625H31.7656V35.1875Z" fill="black"/>
<path d="M29.375 38.9531H31.7656V41.3281H29.375V38.9531Z" fill="black"/>
<path d="M29.375 39.9531H31.7656V42.3281H29.375V39.9531Z" fill="black"/>
<path d="M29.375 34.1875H31.7656V31.7969H29.375V29.4219H27V38.9531H29.375V34.1875Z" fill="black"/>
<path d="M29.375 35.1875H31.7656V32.7969H29.375V30.4219H27V39.9531H29.375V35.1875Z" fill="black"/>
<path d="M23 14H38V17H23V14Z" fill="black"/>
<path d="M21 42H34V44H21V42Z" fill="black"/>
<path d="M26 29H36V31H26V29Z" fill="black"/>
<path d="M25 21H37V24H25V21Z" fill="black"/>
<path d="M23.8125 26.1875H26.2031V33.3438H23.8125V26.1875Z" fill="black"/>
<path d="M23.8125 2.39062H26.2031V9.53125H23.8125V2.39062Z" fill="black"/>
<path d="M21.4375 33.3438H23.8125V35.7188H21.4375V33.3438Z" fill="black"/>
<path d="M21.4375 23.8125H23.8125V26.1875H21.4375V23.8125Z" fill="black"/>
<path d="M21.4375 9.53125H23.8125V11.9062H21.4375V9.53125Z" fill="black"/>
<path d="M19.0469 0H23.8125V2.39062H19.0469V0Z" fill="black"/>
<path d="M21.4375 35.7188H19.0469V23.8125H21.4375V21.4375H19.0469V14.2969H21.4375V11.9062H19.0469V2.39062H16.6719V14.2969H14.2969V16.6719H16.6719V21.4375H14.2969V23.8125H16.6719V28.5781H14.2969V30.9531H16.6719V35.7188H11.9062V38.0938H16.6719V40.4844H11.9062V42.8594H9.53125V47.625H11.9062V50H16.6719V47.625H19.0469V38.0938H21.4375V35.7188Z" fill="black"/>
<path d="M11.9062 23.8125H14.2969V28.5781H11.9062V23.8125Z" fill="black"/>
<path d="M11.9062 16.6719H14.2969V19.0469H11.9062V16.6719Z" fill="black"/>
<path d="M9.53125 33.3438H11.9062V35.7188H9.53125V33.3438Z" fill="black"/>
<path d="M9.53125 19.0469H11.9062V21.4375H9.53125V19.0469Z" fill="black"/>
<path d="M7.15625 21.4375H9.53125V33.3438H7.15625V21.4375Z" fill="black"/>
<path d="M0 42.8594H7.15625V45.25H0V42.8594Z" fill="black"/>
<path d="M0 35.7188H7.15625V38.0938H0V35.7188Z" fill="black"/>
<path d="M0 28.5781H4.76562V30.9531H0V28.5781Z" fill="black"/>
<path d="M0 21.4375H4.76562V23.8125H0V21.4375Z" fill="black"/>
<path d="M0 14.2969H9.53125V16.6719H0V14.2969Z" fill="black"/>
</svg>
